<svg version="1.1" id="Layer_1" xmlns="http://www.w3.org/2000/svg" xmlns:xlink="http://www.w3.org/1999/xlink" x="0px" y="0px"
	 width="100%" viewBox="0 0 200 200" enable-background="new 0 0 200 200" xml:space="preserve">
<path fill="#FEFFFF" opacity="1.000000" stroke="none" 
	d="
M94.000000,201.000000 
	C62.666668,201.000000 31.833338,201.000000 1.000004,201.000000 
	C1.000003,134.333344 1.000003,67.666679 1.000001,1.000013 
	C67.666656,1.000009 134.333313,1.000009 200.999969,1.000004 
	C200.999985,67.666649 200.999985,134.333298 201.000000,200.999969 
	C165.500000,201.000000 130.000000,201.000000 94.000000,201.000000 
M100.708870,45.664524 
	C100.708870,45.664524 100.660263,45.760681 100.026543,45.971714 
	C80.512276,81.875641 60.994141,117.777473 41.510143,153.697830 
	C41.100452,154.453125 41.085011,155.422287 40.690914,157.140839 
	C61.397991,147.719635 81.295586,138.666718 101.863098,129.878967 
	C121.700638,139.001648 141.538177,148.124313 162.714996,157.862869 
	C141.963669,119.606026 121.993591,82.789474 102.008034,45.365932 
	C101.598099,45.437981 101.188171,45.510029 100.708870,45.664524 
z"/>
<path fill="#25353D" opacity="1.000000" stroke="none" 
	d="
M102.023514,45.972931 
	C121.993591,82.789474 141.963669,119.606026 162.714996,157.862869 
	C141.538177,148.124313 121.700638,139.001648 101.482147,129.305267 
	C101.060951,114.650116 101.047195,100.568550 100.972870,86.487289 
	C100.901207,72.911583 100.766998,59.336205 100.660263,45.760681 
	C100.660263,45.760681 100.708870,45.664524 101.042542,45.761055 
	C101.591988,45.896030 101.807747,45.934483 102.023514,45.972931 
z"/>
<path fill="#7B8589" opacity="1.000000" stroke="none" 
	d="
M100.343399,45.866196 
	C100.766998,59.336205 100.901207,72.911583 100.972870,86.487289 
	C101.047195,100.568550 101.060951,114.650116 101.147186,129.172668 
	C81.295586,138.666718 61.397991,147.719635 40.690914,157.140839 
	C41.085011,155.422287 41.100452,154.453125 41.510143,153.697830 
	C60.994141,117.777473 80.512276,81.875641 100.343399,45.866196 
z"/>
<path fill="#7B8589" opacity="1.000000" stroke="none" 
	d="
M102.015778,45.669434 
	C101.807747,45.934483 101.591988,45.896030 101.077225,45.719833 
	C101.188171,45.510029 101.598099,45.437981 102.015778,45.669434 
z"/>
</svg>